<mxfile host="65bd71144e">
    <diagram id="Slhoa-HjcYFDM3AOvHh0" name="Page-1">
        <mxGraphModel dx="1309" dy="719" grid="1" gridSize="10" guides="1" tooltips="1" connect="1" arrows="1" fold="1" page="0" pageScale="1" pageWidth="827" pageHeight="1169" math="0" shadow="0">
            <root>
                <mxCell id="0"/>
                <mxCell id="1" style="locked=1;" parent="0"/>
                <mxCell id="3" value="&lt;font style=&quot;font-size: 19px;&quot;&gt;Box&lt;/font&gt;" style="rounded=0;whiteSpace=wrap;html=1;fillColor=none;dashed=1;verticalAlign=top;" parent="1" vertex="1">
                    <mxGeometry y="80" width="560" height="560" as="geometry"/>
                </mxCell>
                <mxCell id="4" value="&lt;font style=&quot;font-size: 19px;&quot;&gt;Trawler&lt;br&gt;&lt;br&gt;&lt;/font&gt;" style="rounded=0;whiteSpace=wrap;html=1;fillColor=none;dashed=1;verticalAlign=top;" parent="1" vertex="1">
                    <mxGeometry x="840" y="80" width="1090" height="560" as="geometry"/>
                </mxCell>
                <mxCell id="5" value="&lt;font style=&quot;font-size: 19px;&quot;&gt;Cable&lt;/font&gt;" style="rounded=0;whiteSpace=wrap;html=1;fillColor=none;dashed=1;verticalAlign=top;" parent="1" vertex="1">
                    <mxGeometry x="600" y="80" width="200" height="560" as="geometry"/>
                </mxCell>
                <mxCell id="74" style="edgeStyle=none;html=1;entryX=0.819;entryY=1.004;entryDx=0;entryDy=0;entryPerimeter=0;startArrow=block;startFill=1;" edge="1" parent="1" source="31" target="29">
                    <mxGeometry relative="1" as="geometry"/>
                </mxCell>
                <mxCell id="75" style="edgeStyle=none;html=1;entryX=0.16;entryY=1.006;entryDx=0;entryDy=0;entryPerimeter=0;startArrow=block;startFill=1;" edge="1" parent="1" source="34" target="29">
                    <mxGeometry relative="1" as="geometry"/>
                </mxCell>
                <mxCell id="6" value="Box" style="locked=1;" parent="0"/>
                <mxCell id="11" value="RasPi/Laptop" style="shape=cube;whiteSpace=wrap;html=1;boundedLbl=1;backgroundOutline=1;darkOpacity=0.05;darkOpacity2=0.1;fontSize=19;fillColor=default;verticalAlign=top;" parent="6" vertex="1">
                    <mxGeometry x="40" y="120" width="280" height="440" as="geometry"/>
                </mxCell>
                <mxCell id="10" value="Google earth ocean depth map" style="rounded=0;whiteSpace=wrap;html=1;fontSize=19;fillColor=default;verticalAlign=top;" parent="6" vertex="1">
                    <mxGeometry x="95" y="190" width="170" height="80" as="geometry"/>
                </mxCell>
                <mxCell id="51" style="edgeStyle=none;html=1;entryX=-0.016;entryY=0.275;entryDx=0;entryDy=0;entryPerimeter=0;fontSize=19;" parent="6" source="13" target="28" edge="1">
                    <mxGeometry relative="1" as="geometry"/>
                </mxCell>
                <mxCell id="53" style="edgeStyle=none;html=1;exitX=0;exitY=0;exitDx=0;exitDy=35;exitPerimeter=0;entryX=1.001;entryY=0.375;entryDx=0;entryDy=0;entryPerimeter=0;fontSize=19;" parent="6" source="13" target="11" edge="1">
                    <mxGeometry relative="1" as="geometry"/>
                </mxCell>
                <mxCell id="13" value="12V Power supply" style="shape=cube;whiteSpace=wrap;html=1;boundedLbl=1;backgroundOutline=1;darkOpacity=0.05;darkOpacity2=0.1;fontSize=19;fillColor=default;verticalAlign=top;" parent="6" vertex="1">
                    <mxGeometry x="360" y="250" width="160" height="90" as="geometry"/>
                </mxCell>
                <mxCell id="50" style="edgeStyle=none;html=1;entryX=-0.007;entryY=0.684;entryDx=0;entryDy=0;entryPerimeter=0;fontSize=19;" parent="6" source="21" target="28" edge="1">
                    <mxGeometry relative="1" as="geometry"/>
                </mxCell>
                <mxCell id="54" style="edgeStyle=none;html=1;entryX=1.014;entryY=0.627;entryDx=0;entryDy=0;entryPerimeter=0;fontSize=19;startArrow=classic;startFill=1;" parent="6" source="21" target="11" edge="1">
                    <mxGeometry relative="1" as="geometry"/>
                </mxCell>
                <mxCell id="21" value="RS-422 tranciever" style="shape=cube;whiteSpace=wrap;html=1;boundedLbl=1;backgroundOutline=1;darkOpacity=0.05;darkOpacity2=0.1;fontSize=19;fillColor=default;verticalAlign=top;" parent="6" vertex="1">
                    <mxGeometry x="360" y="350" width="160" height="90" as="geometry"/>
                </mxCell>
                <mxCell id="46" value="Tether control" style="rounded=0;whiteSpace=wrap;html=1;fontSize=19;verticalAlign=top;" parent="6" vertex="1">
                    <mxGeometry x="90" y="290" width="185" height="60" as="geometry"/>
                </mxCell>
                <mxCell id="49" style="edgeStyle=none;html=1;entryX=0;entryY=0;entryDx=90;entryDy=240;entryPerimeter=0;fontSize=19;" parent="6" source="48" target="28" edge="1">
                    <mxGeometry relative="1" as="geometry">
                        <Array as="points">
                            <mxPoint x="710" y="520"/>
                        </Array>
                    </mxGeometry>
                </mxCell>
                <mxCell id="48" value="Winch&amp;nbsp;&lt;br&gt;(not for prototype)" style="shape=cube;whiteSpace=wrap;html=1;boundedLbl=1;backgroundOutline=1;darkOpacity=0.05;darkOpacity2=0.1;fontSize=19;verticalAlign=top;" parent="6" vertex="1">
                    <mxGeometry x="360" y="480" width="180" height="80" as="geometry"/>
                </mxCell>
                <mxCell id="55" value="" style="endArrow=classic;html=1;fontSize=19;entryX=0;entryY=0;entryDx=0;entryDy=30;entryPerimeter=0;" parent="6" target="48" edge="1">
                    <mxGeometry width="50" height="50" relative="1" as="geometry">
                        <mxPoint x="320" y="510" as="sourcePoint"/>
                        <mxPoint x="500" y="650" as="targetPoint"/>
                    </mxGeometry>
                </mxCell>
                <mxCell id="67" value="GPS/Location services" style="rounded=0;whiteSpace=wrap;html=1;fontSize=19;verticalAlign=top;" parent="6" vertex="1">
                    <mxGeometry x="87.5" y="370" width="185" height="70" as="geometry"/>
                </mxCell>
                <mxCell id="24" value="Cable" style="locked=1;" parent="0"/>
                <mxCell id="28" value="6 core data+power cable&lt;br&gt;4 - RS-422&lt;br&gt;2 - Power" style="shape=cube;whiteSpace=wrap;html=1;boundedLbl=1;backgroundOutline=1;darkOpacity=0.05;darkOpacity2=0.1;fontSize=19;fillColor=default;verticalAlign=top;" parent="24" vertex="1">
                    <mxGeometry x="620" y="230" width="160" height="240" as="geometry"/>
                </mxCell>
                <mxCell id="86" value="RS422" style="text;html=1;align=center;verticalAlign=middle;resizable=0;points=[];autosize=1;strokeColor=none;fillColor=none;" vertex="1" parent="24">
                    <mxGeometry x="530" y="350" width="60" height="30" as="geometry"/>
                </mxCell>
                <mxCell id="87" value="RS422" style="text;html=1;align=center;verticalAlign=middle;resizable=0;points=[];autosize=1;strokeColor=none;fillColor=none;" vertex="1" parent="24">
                    <mxGeometry x="800" y="380" width="60" height="30" as="geometry"/>
                </mxCell>
                <mxCell id="16" value="Trawler" style="locked=1;" parent="0"/>
                <mxCell id="17" value="Stereo Camera" style="shape=cube;whiteSpace=wrap;html=1;boundedLbl=1;backgroundOutline=1;darkOpacity=0.05;darkOpacity2=0.1;fontSize=19;fillColor=default;verticalAlign=top;" parent="16" vertex="1">
                    <mxGeometry x="1741" y="550" width="120" height="80" as="geometry"/>
                </mxCell>
                <mxCell id="29" value="Sensordata / rs422 PCB" style="shape=cube;whiteSpace=wrap;html=1;boundedLbl=1;backgroundOutline=1;darkOpacity=0.05;darkOpacity2=0.1;fontSize=19;fillColor=default;verticalAlign=top;" parent="16" vertex="1">
                    <mxGeometry x="1211" y="130" width="280" height="400" as="geometry"/>
                </mxCell>
                <mxCell id="79" style="edgeStyle=none;html=1;entryX=0.817;entryY=1.005;entryDx=0;entryDy=0;entryPerimeter=0;startArrow=block;startFill=1;" edge="1" parent="16" source="31" target="29">
                    <mxGeometry relative="1" as="geometry"/>
                </mxCell>
                <mxCell id="31" value="Fin motors/ Servos" style="shape=cube;whiteSpace=wrap;html=1;boundedLbl=1;backgroundOutline=1;darkOpacity=0.05;darkOpacity2=0.1;fontSize=19;fillColor=default;verticalAlign=top;" parent="16" vertex="1">
                    <mxGeometry x="1381" y="550" width="120" height="80" as="geometry"/>
                </mxCell>
                <mxCell id="81" style="edgeStyle=none;html=1;entryX=0.161;entryY=0.998;entryDx=0;entryDy=0;entryPerimeter=0;startArrow=block;startFill=1;" edge="1" parent="16" source="34" target="29">
                    <mxGeometry relative="1" as="geometry"/>
                </mxCell>
                <mxCell id="34" value="Internal Moisture + Temp sensor" style="shape=cube;whiteSpace=wrap;html=1;boundedLbl=1;backgroundOutline=1;darkOpacity=0.05;darkOpacity2=0.1;fontSize=19;fillColor=default;verticalAlign=top;" parent="16" vertex="1">
                    <mxGeometry x="1161" y="550" width="190" height="80" as="geometry"/>
                </mxCell>
                <mxCell id="60" style="edgeStyle=none;html=1;entryX=0;entryY=0;entryDx=50;entryDy=0;entryPerimeter=0;fontSize=19;startArrow=classic;startFill=1;exitX=0.713;exitY=1.001;exitDx=0;exitDy=0;exitPerimeter=0;" parent="16" source="36" target="17" edge="1">
                    <mxGeometry relative="1" as="geometry"/>
                </mxCell>
                <mxCell id="71" style="edgeStyle=none;html=1;entryX=1;entryY=0.47;entryDx=0;entryDy=0;entryPerimeter=0;startArrow=classic;startFill=1;" parent="16" source="36" target="29" edge="1">
                    <mxGeometry relative="1" as="geometry"/>
                </mxCell>
                <mxCell id="36" value="Nvidia Jetson Nano" style="shape=cube;whiteSpace=wrap;html=1;boundedLbl=1;backgroundOutline=1;darkOpacity=0.05;darkOpacity2=0.1;fontSize=19;fillColor=default;verticalAlign=top;" parent="16" vertex="1">
                    <mxGeometry x="1591" y="120" width="280" height="400" as="geometry"/>
                </mxCell>
                <mxCell id="69" style="edgeStyle=none;html=1;entryX=-0.013;entryY=0.36;entryDx=0;entryDy=0;entryPerimeter=0;" parent="16" source="39" target="29" edge="1">
                    <mxGeometry relative="1" as="geometry">
                        <mxPoint x="1080" y="280" as="targetPoint"/>
                    </mxGeometry>
                </mxCell>
                <mxCell id="39" value="Power" style="shape=cube;whiteSpace=wrap;html=1;boundedLbl=1;backgroundOutline=1;darkOpacity=0.05;darkOpacity2=0.1;fontSize=19;fillColor=default;verticalAlign=top;" parent="16" vertex="1">
                    <mxGeometry x="860" y="240" width="160" height="70" as="geometry"/>
                </mxCell>
                <mxCell id="70" style="edgeStyle=none;html=1;entryX=-0.012;entryY=0.751;entryDx=0;entryDy=0;entryPerimeter=0;startArrow=classic;startFill=1;" parent="16" source="40" target="29" edge="1">
                    <mxGeometry relative="1" as="geometry"/>
                </mxCell>
                <mxCell id="40" value="RS-422 tranciever" style="shape=cube;whiteSpace=wrap;html=1;boundedLbl=1;backgroundOutline=1;darkOpacity=0.05;darkOpacity2=0.1;fontSize=19;fillColor=default;verticalAlign=top;" parent="16" vertex="1">
                    <mxGeometry x="860" y="370" width="160" height="120" as="geometry"/>
                </mxCell>
                <mxCell id="41" value="&lt;font style=&quot;font-size: 19px;&quot;&gt;Image processing &amp;amp; depth estimate&lt;/font&gt;" style="rounded=0;whiteSpace=wrap;html=1;verticalAlign=top;" parent="16" vertex="1">
                    <mxGeometry x="1636" y="200" width="190" height="60" as="geometry"/>
                </mxCell>
                <mxCell id="42" value="Data transmission" style="whiteSpace=wrap;html=1;fontSize=19;verticalAlign=top;" parent="16" vertex="1">
                    <mxGeometry x="1638.5" y="280" width="185" height="60" as="geometry"/>
                </mxCell>
                <mxCell id="43" value="Fin control" style="rounded=0;whiteSpace=wrap;html=1;fontSize=19;verticalAlign=top;" parent="16" vertex="1">
                    <mxGeometry x="1639.75" y="360" width="182.5" height="60" as="geometry"/>
                </mxCell>
                <mxCell id="44" value="Reading sensordata" style="rounded=0;whiteSpace=wrap;html=1;fontSize=19;verticalAlign=top;" parent="16" vertex="1">
                    <mxGeometry x="1246" y="210" width="210" height="60" as="geometry"/>
                </mxCell>
                <mxCell id="45" value="TTL-RS422 serial conversion" style="rounded=0;whiteSpace=wrap;html=1;fontSize=19;verticalAlign=top;" parent="16" vertex="1">
                    <mxGeometry x="1246" y="290" width="205" height="60" as="geometry"/>
                </mxCell>
                <mxCell id="56" value="" style="endArrow=classic;html=1;fontSize=19;exitX=0.996;exitY=0.792;exitDx=0;exitDy=0;exitPerimeter=0;entryX=0;entryY=0;entryDx=0;entryDy=50;entryPerimeter=0;startArrow=classic;startFill=1;" parent="16" source="28" target="40" edge="1">
                    <mxGeometry width="50" height="50" relative="1" as="geometry">
                        <mxPoint x="920" y="600" as="sourcePoint"/>
                        <mxPoint x="970" y="550" as="targetPoint"/>
                    </mxGeometry>
                </mxCell>
                <mxCell id="57" value="" style="endArrow=classic;html=1;fontSize=19;exitX=1.007;exitY=0.256;exitDx=0;exitDy=0;exitPerimeter=0;entryX=0;entryY=0;entryDx=0;entryDy=50;entryPerimeter=0;" parent="16" source="28" target="39" edge="1">
                    <mxGeometry width="50" height="50" relative="1" as="geometry">
                        <mxPoint x="870" y="130" as="sourcePoint"/>
                        <mxPoint x="920" y="80" as="targetPoint"/>
                    </mxGeometry>
                </mxCell>
                <mxCell id="68" value="12V-5V power buck conversion" style="rounded=0;whiteSpace=wrap;html=1;fontSize=19;verticalAlign=top;" parent="16" vertex="1">
                    <mxGeometry x="1246" y="370" width="205" height="60" as="geometry"/>
                </mxCell>
                <mxCell id="73" value="Image processing (finding nets)" style="rounded=0;whiteSpace=wrap;html=1;fontSize=19;fillColor=default;verticalAlign=top;" parent="16" vertex="1">
                    <mxGeometry x="1639.75" y="440" width="181.25" height="60" as="geometry"/>
                </mxCell>
                <mxCell id="76" value="Serial port 1" style="text;html=1;align=center;verticalAlign=middle;resizable=0;points=[];autosize=1;strokeColor=none;fillColor=none;" vertex="1" parent="16">
                    <mxGeometry x="1491" y="290" width="90" height="30" as="geometry"/>
                </mxCell>
                <mxCell id="78" value="USB" style="text;html=1;align=center;verticalAlign=middle;resizable=0;points=[];autosize=1;strokeColor=none;fillColor=none;" vertex="1" parent="16">
                    <mxGeometry x="1731" y="520" width="50" height="30" as="geometry"/>
                </mxCell>
                <mxCell id="80" value="I2C" style="text;html=1;align=center;verticalAlign=middle;resizable=0;points=[];autosize=1;strokeColor=none;fillColor=none;" vertex="1" parent="16">
                    <mxGeometry x="1451" y="530" width="40" height="30" as="geometry"/>
                </mxCell>
                <mxCell id="82" value="I2C" style="text;html=1;align=center;verticalAlign=middle;resizable=0;points=[];autosize=1;strokeColor=none;fillColor=none;" vertex="1" parent="16">
                    <mxGeometry x="1261" y="530" width="40" height="30" as="geometry"/>
                </mxCell>
                <mxCell id="83" value="Serial port 2" style="text;html=1;align=center;verticalAlign=middle;resizable=0;points=[];autosize=1;strokeColor=none;fillColor=none;" vertex="1" parent="16">
                    <mxGeometry x="1060" y="390" width="90" height="30" as="geometry"/>
                </mxCell>
                <mxCell id="84" value="UART" style="text;html=1;align=center;verticalAlign=middle;resizable=0;points=[];autosize=1;strokeColor=none;fillColor=none;" vertex="1" parent="16">
                    <mxGeometry x="1516" y="320" width="60" height="30" as="geometry"/>
                </mxCell>
                <mxCell id="85" value="UART" style="text;html=1;align=center;verticalAlign=middle;resizable=0;points=[];autosize=1;strokeColor=none;fillColor=none;" vertex="1" parent="16">
                    <mxGeometry x="1075" y="440" width="60" height="30" as="geometry"/>
                </mxCell>
            </root>
        </mxGraphModel>
    </diagram>
</mxfile>